<svg width="63" height="63" viewBox="0 0 63 63" fill="none" xmlns="http://www.w3.org/2000/svg">
<path d="M62.9498 50.6969L61.8139 46.354C61.5657 45.404 60.7754 44.7127 59.8007 44.5926L55.7508 44.0942C55.6504 44.0819 55.5574 44.0341 55.4886 43.9596L49.3279 37.2754C49.2372 37.177 49.1784 37.0551 49.1581 36.9226L47.8891 28.6946C47.812 28.1946 47.3454 27.8523 46.8442 27.9288C46.3442 28.006 46.0014 28.4738 46.0786 28.9738L47.3475 37.2017C47.4236 37.6953 47.6427 38.1501 47.981 38.517L54.1414 45.2011C54.5039 45.5944 54.996 45.8472 55.5271 45.9125L59.577 46.4109C59.802 46.4385 59.9842 46.598 60.0417 46.8173L61.0215 50.5637L55.1594 48.1155C54.7349 47.9382 54.327 47.717 53.947 47.458L45.1706 41.4761C44.9261 41.3094 44.7455 41.0613 44.6623 40.7774L41.4289 29.7539C41.7242 28.9168 41.8776 28.0321 41.8776 27.1378C41.8776 27.1378 41.8761 20.4851 41.8733 20.429C42.2129 20.578 42.5378 20.7609 42.8389 20.9793L43.3429 21.3448C44.4586 22.1544 45.2191 23.4001 45.4292 24.7627C45.5978 25.9441 47.4379 25.6523 47.2397 24.4834C46.9555 22.6411 45.9273 20.9566 44.4187 19.862L43.9147 19.4964C43.0178 18.8456 41.9704 18.4169 40.8764 18.2444C40.2867 17.6746 39.485 17.3229 38.6022 17.3229H36.1179V15.3921C36.1179 15.3891 36.1175 15.3863 36.1174 15.3834C36.5478 14.9063 36.9076 14.3638 37.177 13.7796C38.0087 13.5193 38.7751 12.8427 39.2646 11.906C39.6475 11.1731 39.809 10.367 39.7192 9.6362C39.6155 8.79247 39.1785 8.11141 38.5202 7.76737C38.2817 7.64284 38.0258 7.56705 37.76 7.53985V7.52496V4.91231C37.76 2.50674 35.8029 0.549561 33.3974 0.549561H29.6514C27.2459 0.549561 25.2887 2.50674 25.2887 4.91231V7.52509V7.53481C25.0062 7.55745 24.7336 7.63497 24.4801 7.76737C23.8218 8.11141 23.3848 8.79247 23.2811 9.6362C23.1912 10.367 23.3527 11.1732 23.7357 11.906C24.2304 12.8528 25.0294 13.5426 25.8777 13.7925C26.1364 14.3499 26.4767 14.8694 26.8825 15.3297V17.3231H24.3982C23.5155 17.3231 22.7137 17.6747 22.1242 18.2444C21.0303 18.4168 19.9828 18.8458 19.0856 19.4966L18.5818 19.8621C17.073 20.9568 16.0447 22.6413 15.7606 24.4837L13.8421 36.9228C13.8217 37.0551 13.763 37.1772 13.6723 37.2756L7.51161 43.9599C7.44308 44.0342 7.34993 44.0821 7.24952 44.0944L3.19968 44.5927C2.22515 44.7127 1.43482 45.404 1.18639 46.354L0.0506665 50.6971C-0.0809936 51.2006 0.0495591 51.7228 0.391137 52.1019C0.160916 52.7108 0.0399614 53.3582 0.0399614 54.0161C0.0399614 57.003 2.47001 59.433 5.45685 59.433H11.7396C11.5101 59.9336 11.4463 60.5049 11.5773 61.0545C11.8085 62.1449 13.1094 62.7747 14.1078 62.2777L17.6184 60.6407C18.3995 60.2765 19.2311 60.0554 20.0904 59.9835L26.6189 59.4331H57.5437C60.5305 59.4331 62.9606 57.0031 62.9606 54.0163C62.9606 53.3597 62.8386 52.7122 62.6084 52.103C62.9506 51.7236 63.0815 51.2009 62.9498 50.6969ZM44.1387 42.9899L47.1102 45.0153C45.3868 44.7774 43.6474 44.6564 41.9057 44.6564C41.893 44.6564 41.8807 44.6578 41.8681 44.6583L41.529 44.0979C40.2901 42.0504 39.6352 39.7034 39.6352 37.3104V35.3349C39.6352 34.2662 39.8445 33.2108 40.2449 32.2271L42.9042 41.2931C43.1066 41.9828 43.5449 42.5852 44.1387 42.9899ZM28.7146 17.0994C29.5288 17.7791 30.5263 18.12 31.5243 18.12C32.5027 18.12 33.4805 17.7924 34.2857 17.1394V18.7116C34.2857 19.4466 33.6877 20.0446 32.9528 20.0446H30.0475C29.3126 20.0446 28.7146 19.4466 28.7146 18.7116V17.0994ZM29.6514 2.38161H33.3974C34.7927 2.38161 35.9279 3.51696 35.9279 4.91231V4.95095H27.1207V4.91231C27.1207 3.51684 28.2561 2.38161 29.6514 2.38161ZM25.3596 11.0578C25.15 10.6568 25.0553 10.2201 25.0996 9.85978C25.1244 9.37313 25.4804 9.26226 25.8052 9.45348C26.0891 9.59104 26.4238 9.57296 26.6912 9.40537C26.9586 9.2379 27.1209 8.94455 27.1209 8.62919V6.78299H35.9281V8.6063C35.9281 8.91761 36.0862 9.20763 36.3479 9.37633C36.6096 9.5449 36.939 9.56914 37.2226 9.44043C37.536 9.26288 37.8779 9.39048 37.901 9.85965C37.9453 10.2199 37.8505 10.6566 37.641 11.0576C37.3101 11.691 36.7968 12.0432 36.4607 12.064C36.0966 12.0866 35.7805 12.3229 35.6561 12.6659C35.4197 13.3171 35.0308 13.914 34.5311 14.3918L33.2944 15.5748C32.302 16.5241 30.747 16.524 29.7547 15.5748L28.5179 14.3918C28.0185 13.9142 27.6295 13.3175 27.3932 12.6661C27.2647 12.3123 26.9331 12.0731 26.5569 12.0631C26.2181 12.0538 25.6981 11.7056 25.3596 11.0578ZM24.3982 19.1551H26.9143C27.1307 20.691 28.453 21.8767 30.0475 21.8767H32.9528C34.5475 21.8767 35.8697 20.6911 36.086 19.1551H38.6021C39.3979 19.1551 40.0454 19.8026 40.0454 20.5983V27.1379C40.0454 28.2171 39.7552 29.2785 39.2058 30.2074C38.2882 31.7592 37.8032 33.5323 37.8032 35.335V37.3106C37.8032 40.0379 38.5496 42.7129 39.9615 45.0465L40.3013 45.6076L39.0996 45.7797C34.0571 46.5023 28.9435 46.5024 23.901 45.7797L22.6993 45.6076L23.0389 45.0464C24.451 42.7129 25.1973 40.0379 25.1973 37.3104V35.3349C25.1973 33.5323 24.7122 31.7592 23.7946 30.2073C23.2454 29.2783 22.955 28.2169 22.955 27.1378V20.5982C22.9549 19.8026 23.6023 19.1551 24.3982 19.1551ZM21.4714 44.0979L21.1323 44.6583C21.1197 44.6578 21.1074 44.6563 21.0946 44.6563C19.3517 44.6563 17.6114 44.7792 15.8869 45.0173L18.8617 42.9898C19.4555 42.5851 19.8939 41.9825 20.0961 41.2928L22.7554 32.227C23.1558 33.2105 23.3651 34.2661 23.3651 35.3348V37.3103C23.3652 39.7036 22.7104 42.0506 21.4714 44.0979ZM2.95876 46.8175C3.0161 46.5983 3.19845 46.4387 3.4235 46.4111L7.47335 45.9128C8.00429 45.8474 8.49636 45.5948 8.85885 45.2014L15.0196 38.5171C15.3579 38.1501 15.5768 37.6952 15.653 37.2019L17.5714 24.7628C17.7815 23.4003 18.542 22.1546 19.6578 21.345L20.1617 20.9794C20.4628 20.761 20.7876 20.5781 21.1274 20.4291C21.1245 20.4851 21.1231 27.1379 21.1231 27.1379C21.1231 28.0322 21.2766 28.9169 21.5719 29.754L18.3384 40.7774C18.2551 41.0613 18.0746 41.3094 17.8301 41.4761L9.05351 47.458C8.67354 47.717 8.26564 47.9382 7.84113 48.1154L1.97918 50.5637L2.95876 46.8175ZM1.87188 54.0161C1.87188 53.4672 1.99936 52.9299 2.23905 52.4405L7.84347 50.0998L10.9385 49.9327C13.4742 49.7956 16.0165 50.0113 18.4934 50.573C18.6465 50.6003 19.4859 50.8188 19.6256 50.8066C20.0438 50.8066 20.4216 50.5182 20.518 50.093C20.63 49.5996 20.3208 49.109 19.8275 48.9971L18.8987 48.7864C16.4372 48.228 13.9158 47.9908 11.395 48.0789L12.0417 47.638C14.8974 46.9013 17.8367 46.5159 20.7858 46.4908C20.7886 46.497 20.7903 46.5035 20.7933 46.5097C21.008 46.9635 21.433 47.2769 21.9299 47.348L23.6408 47.5931C26.2483 47.9667 28.8743 48.1534 31.5 48.1534C34.1259 48.1534 36.7516 47.9667 39.3591 47.5931L41.0701 47.348C41.5669 47.2767 41.9919 46.9633 42.2068 46.5098C42.2097 46.5036 42.2114 46.4971 42.2144 46.4908C45.1632 46.5161 48.1024 46.9013 50.9581 47.6379L51.6052 48.0789C49.0845 47.9909 46.5631 48.228 44.1016 48.7864L31.5001 51.6448L27.2584 50.6827C25.9083 49.9248 24.1995 50.1825 23.1378 51.3274L21.5175 53.0748C21.3503 53.2551 21.1397 53.3942 20.9082 53.4773L16.9925 54.881C16.1894 55.169 15.4698 55.6143 14.8537 56.2048L13.3967 57.601H5.45673C3.48011 57.601 1.87188 55.9929 1.87188 54.0161ZM19.9371 58.1578C18.8622 58.2477 17.8216 58.5244 16.8441 58.9802L13.3545 60.6075C13.3097 60.3854 13.3819 60.1527 13.5462 59.9953L16.1213 57.5275C16.5504 57.1163 17.0516 56.8062 17.6108 56.6057L21.5265 55.2019C22.0334 55.0202 22.4948 54.7155 22.861 54.3207L24.4813 52.5733C25.0064 52.0011 25.8752 51.93 26.5048 52.3637L27.9556 53.2698C28.3856 53.5385 28.849 53.7516 29.3327 53.9032L29.3948 53.9226V57.3604L19.9371 58.1578ZM57.5436 57.601H31.2268V53.5855L44.5069 50.5732C46.9839 50.0113 49.5256 49.7957 52.0618 49.9328C52.0618 49.9328 55.1012 50.0941 55.1371 50.0918L60.762 52.441C61.0016 52.9304 61.1285 53.4687 61.1285 54.0163C61.1285 55.9929 59.5203 57.601 57.5436 57.601Z" fill="#FFB800"/>
</svg>
