<svg width="63" height="63" viewBox="0 0 63 63" fill="none" xmlns="http://www.w3.org/2000/svg">
<g clip-path="url(#clip0_7_136)">
<path d="M27.1514 44.8609C27.5147 45.3394 27.9835 45.7275 28.5213 45.9952C29.0591 46.2629 29.6514 46.403 30.2521 46.4044C30.6774 46.405 31.0999 46.3352 31.5023 46.1977C31.9049 46.3354 32.3275 46.4054 32.753 46.4049C33.3537 46.4035 33.946 46.2634 34.4838 45.9957C35.0216 45.728 35.4904 45.3399 35.8537 44.8614L39.6569 39.8268C41.0361 37.9937 41.7842 35.7629 41.789 33.4688C41.7889 32.361 41.5032 31.2719 40.9594 30.3068C40.4155 29.3417 39.632 28.5331 38.6845 27.9592C37.737 27.3852 36.6575 27.0653 35.5503 27.0303C34.443 26.9953 33.3455 27.2464 32.3636 27.7594V26.6579H33.1364C34.2718 26.6572 35.3606 26.2059 36.1635 25.403C36.9664 24.6001 37.4178 23.5113 37.4184 22.3759C37.4184 22.1474 37.3277 21.9283 37.1661 21.7668C37.0046 21.6053 36.7855 21.5145 36.5571 21.5145H34.923C34.2446 21.515 33.576 21.6771 32.9726 21.9872C32.3692 22.2974 31.8483 22.7468 31.4531 23.2982C31.0372 22.7455 30.4986 22.2969 29.8798 21.9878C29.261 21.6787 28.5789 21.5175 27.8872 21.517C27.6587 21.517 27.4397 21.6077 27.2781 21.7693C27.1166 21.9308 27.0259 22.1499 27.0259 22.3783C27.0259 22.6068 27.1166 22.8258 27.2781 22.9874C27.4397 23.1489 27.6587 23.2396 27.8872 23.2396C28.6173 23.2403 29.3174 23.5306 29.8337 24.0469C30.35 24.5632 30.6403 25.2633 30.641 25.9934V27.7594C29.6591 27.2464 28.5616 26.9953 27.4543 27.0303C26.3471 27.0653 25.2676 27.3852 24.3201 27.9592C23.3726 28.5331 22.5891 29.3417 22.0452 30.3068C21.5014 31.2719 21.2157 32.361 21.2156 33.4688C21.2202 35.763 21.9681 37.9939 23.3472 39.8273L27.1514 44.8609ZM34.9206 23.2391H35.5442C35.3663 23.7353 35.0395 24.1645 34.6086 24.4679C34.1776 24.7714 33.6635 24.9344 33.1364 24.9347H32.5133C32.6912 24.4387 33.0179 24.0098 33.4488 23.7064C33.8796 23.403 34.3936 23.24 34.9206 23.2396V23.2391ZM27.6578 28.7492C28.8677 28.7481 30.0313 29.2139 30.9063 30.0495C31.0679 30.1988 31.2798 30.2816 31.4998 30.2816C31.7198 30.2816 31.9318 30.1988 32.0934 30.0495C32.762 29.4118 33.6032 28.9845 34.5125 28.8206C35.4218 28.6567 36.3593 28.7634 37.2085 29.1276C38.0576 29.4918 38.7812 30.0973 39.2892 30.8691C39.7973 31.6408 40.0675 32.5448 40.0664 33.4688C40.0625 35.3885 39.4367 37.2552 38.2827 38.7893L34.4786 43.8229C34.1776 44.2087 33.7569 44.4835 33.2827 44.6038C32.8085 44.7242 32.3076 44.6834 31.8591 44.4879C31.7472 44.4369 31.6256 44.4105 31.5026 44.4105C31.3795 44.4105 31.2579 44.4369 31.146 44.4879C30.6975 44.6835 30.1966 44.7244 29.7224 44.604C29.2481 44.4836 28.8274 44.2088 28.5265 43.8229L24.7234 38.7883C23.5691 37.2547 22.9427 35.3883 22.9382 33.4688C22.9397 32.2175 23.4374 31.0179 24.3222 30.1331C25.2069 29.2483 26.4066 28.7506 27.6578 28.7492V28.7492Z" fill="#00C9F5"/>
<path d="M50.5313 4.92188L38.5712 4.92532L37.2482 0.608836C37.1943 0.432719 37.0853 0.278539 36.9372 0.168951C36.7892 0.0593628 36.6099 0.000145466 36.4257 5.4004e-08H26.5741C26.3898 -6.52265e-05 26.2102 0.0590549 26.062 0.168658C25.9138 0.278262 25.8046 0.432558 25.7507 0.608836L24.4277 4.92532L12.4685 4.92188C11.5877 4.92292 10.7433 5.27327 10.1205 5.89609C9.49764 6.51891 9.14728 7.36334 9.14624 8.24414V59.6777C9.14728 60.5585 9.49764 61.403 10.1205 62.0258C10.7433 62.6486 11.5877 62.999 12.4685 63H50.5313C51.4121 62.999 52.2566 62.6486 52.8794 62.0258C53.5022 61.403 53.8525 60.5585 53.8536 59.6777V8.24414C53.8525 7.36334 53.5022 6.51891 52.8794 5.89609C52.2566 5.27327 51.4121 4.92292 50.5313 4.92188V4.92188ZM47.2086 11.5664V56.3555H15.7913V11.5664H47.2086ZM25.0641 6.64847C25.2487 6.64885 25.4285 6.58988 25.5771 6.48025C25.7256 6.37062 25.8349 6.21615 25.889 6.03963L27.211 1.72266H35.7888L37.1109 6.03963C37.1648 6.21591 37.274 6.37021 37.4222 6.47981C37.5704 6.58941 37.7499 6.64853 37.9343 6.64847L41.9983 6.64552V9.84375H21.0001V6.64453L25.0641 6.64847ZM52.1309 59.6777C52.1304 60.1018 51.9617 60.5084 51.6618 60.8083C51.362 61.1081 50.9554 61.2768 50.5313 61.2773H12.4685C12.0444 61.2768 11.6379 61.1081 11.338 60.8083C11.0381 60.5084 10.8694 60.1018 10.8689 59.6777V8.24414C10.8694 7.82006 11.0381 7.41349 11.338 7.11362C11.6379 6.81375 12.0444 6.64505 12.4685 6.64453H19.2774V9.84375H14.9299C14.7015 9.84375 14.4824 9.9345 14.3209 10.096C14.1594 10.2576 14.0686 10.4766 14.0686 10.7051V57.2168C14.0686 57.4452 14.1594 57.6643 14.3209 57.8258C14.4824 57.9874 14.7015 58.0781 14.9299 58.0781H48.0699C48.2983 58.0781 48.5174 57.9874 48.6789 57.8258C48.8405 57.6643 48.9312 57.4452 48.9312 57.2168V10.7051C48.9312 10.4766 48.8405 10.2576 48.6789 10.096C48.5174 9.9345 48.2983 9.84375 48.0699 9.84375H43.7224V6.64453H50.5313C50.9554 6.64505 51.362 6.81375 51.6618 7.11362C51.9617 7.41349 52.1304 7.82006 52.1309 8.24414V59.6777Z" fill="#00C9F5"/>
<path d="M30.1768 6.64453H32.8223C33.0507 6.64453 33.2698 6.55378 33.4313 6.39225C33.5928 6.23072 33.6836 6.01164 33.6836 5.7832C33.6836 5.55476 33.5928 5.33568 33.4313 5.17415C33.2698 5.01262 33.0507 4.92188 32.8223 4.92188H30.1768C29.9483 4.92188 29.7292 5.01262 29.5677 5.17415C29.4062 5.33568 29.3154 5.55476 29.3154 5.7832C29.3154 6.01164 29.4062 6.23072 29.5677 6.39225C29.7292 6.55378 29.9483 6.64453 30.1768 6.64453V6.64453Z" fill="#00C9F5" stroke="#00C9F5"/>
</g>
<defs>
<clipPath id="clip0_7_136">
<rect width="63" height="63" fill="white"/>
</clipPath>
</defs>
</svg>
