<svg width="23" height="14" viewBox="0 0 23 14" fill="none" xmlns="http://www.w3.org/2000/svg">
<path d="M13.9487 6.16294H7.64221V8.44989H11.4192C11.2805 9.42012 10.2757 11.3259 7.64221 11.3259C5.38991 11.3259 3.51877 9.45477 3.51877 7.09851C3.51877 4.77691 5.38991 2.90576 7.64221 2.90576C8.95894 2.90576 9.82521 3.46018 10.3103 3.94529L12.1122 2.21275C10.934 1.10392 9.44406 0.445557 7.64221 0.445557C3.96923 0.445557 0.989258 3.42553 0.989258 7.09851C0.989258 10.8061 3.96923 13.7515 7.64221 13.7515C11.4885 13.7515 14.0526 11.0834 14.0526 7.27177C14.0526 6.82131 13.9833 6.50945 13.9487 6.16294ZM20.3591 6.37085V4.46505H18.4186V6.37085H16.4782V8.31129H18.4186V10.2517H20.3591V8.31129H22.2995V6.37085H20.3591Z" fill="#FF2625"/>
</svg>
