<svg width="17" height="16" viewBox="0 0 17 16" fill="none" xmlns="http://www.w3.org/2000/svg">
<path d="M4.28393 15.6674V5.30679H1.0614V15.6674H4.28393ZM2.65534 3.92075C3.69486 3.92075 4.52648 3.05448 4.52648 2.01496C4.52648 1.01009 3.69486 0.178467 2.65534 0.178467C1.65047 0.178467 0.818848 1.01009 0.818848 2.01496C0.818848 3.05448 1.65047 3.92075 2.65534 3.92075ZM16.3078 15.6674H16.3424V9.98465C16.3424 7.21258 15.7187 5.06423 12.4615 5.06423C10.9022 5.06423 9.86271 5.9305 9.41225 6.72747H9.3776V5.30679H6.29368V15.6674H9.5162V10.5391C9.5162 9.18768 9.75876 7.9056 11.422 7.9056C13.0852 7.9056 13.1199 9.43023 13.1199 10.643V15.6674H16.3078Z" fill="#FF2625"/>
</svg>
