<svg width="18" height="15" viewBox="0 0 18 15" fill="none" xmlns="http://www.w3.org/2000/svg">
<path d="M16.1354 4.01386C16.8285 3.4941 17.4522 2.87038 17.9373 2.14271C17.3136 2.41992 16.5859 2.62783 15.8582 2.69713C16.6205 2.24667 17.175 1.55365 17.4522 0.68738C16.7591 1.10319 15.9622 1.41505 15.1652 1.5883C14.4722 0.860634 13.5366 0.444824 12.4971 0.444824C10.4874 0.444824 8.85876 2.07341 8.85876 4.08316C8.85876 4.36037 8.89342 4.63757 8.96272 4.91478C5.9481 4.74152 3.24533 3.28619 1.44349 1.10319C1.13163 1.62295 0.95838 2.24667 0.95838 2.93968C0.95838 4.18711 1.58209 5.29594 2.58697 5.9543C1.9979 5.91965 1.40884 5.78105 0.923729 5.50384V5.53849C0.923729 7.30569 2.17116 8.76102 3.8344 9.10753C3.55719 9.17683 3.21068 9.24613 2.89883 9.24613C2.65627 9.24613 2.44836 9.21148 2.20581 9.17683C2.65627 10.6322 4.00765 11.6717 5.60159 11.7063C4.35416 12.6766 2.79487 13.2656 1.09698 13.2656C0.785126 13.2656 0.507919 13.231 0.230713 13.1963C1.82465 14.2358 3.73044 14.8249 5.80949 14.8249C12.4971 14.8249 16.1354 9.31543 16.1354 4.49897C16.1354 4.32572 16.1354 4.18711 16.1354 4.01386Z" fill="#FF2625"/>
</svg>
